<svg width="72" height="72" viewBox="0 0 72 72" fill="none" xmlns="http://www.w3.org/2000/svg">
<g filter="url(#filter0_d_1_400)">
<rect x="10" y="2" width="52" height="52" rx="8" fill="#6366F1"/>
<path d="M48.0002 18.4336C44.7721 17.9111 42.3744 18.5286 40.8072 20.2861C39.2399 22.0436 38.4563 24.6323 38.4563 28.0522V37.742H48.0002V28.0522H43.0879C42.8306 26.3422 43.0645 24.9529 43.7897 23.8842C44.5382 22.8154 45.7546 22.3523 47.4388 22.4948L48.0002 18.4336ZM33.544 18.4336C30.316 17.9111 27.9183 18.5286 26.3511 20.2861C24.7838 22.0436 24.0002 24.6323 24.0002 28.0522V37.742H33.544V28.0522H28.6318C28.3744 26.3422 28.6084 24.9529 29.3335 23.8842C30.0821 22.8154 31.2984 22.3523 32.9826 22.4948L33.544 18.4336Z" fill="white"/>
</g>
<defs>
<filter id="filter0_d_1_400" x="0" y="0" width="72" height="72" filterUnits="userSpaceOnUse" color-interpolation-filters="sRGB">
<feFlood flood-opacity="0" result="BackgroundImageFix"/>
<feColorMatrix in="SourceAlpha" type="matrix" values="0 0 0 0 0 0 0 0 0 0 0 0 0 0 0 0 0 0 127 0" result="hardAlpha"/>
<feMorphology radius="8" operator="erode" in="SourceAlpha" result="effect1_dropShadow_1_400"/>
<feOffset dy="8"/>
<feGaussianBlur stdDeviation="9"/>
<feColorMatrix type="matrix" values="0 0 0 0 0.388235 0 0 0 0 0.4 0 0 0 0 0.945098 0 0 0 0.9 0"/>
<feBlend mode="normal" in2="BackgroundImageFix" result="effect1_dropShadow_1_400"/>
<feBlend mode="normal" in="SourceGraphic" in2="effect1_dropShadow_1_400" result="shape"/>
</filter>
</defs>
</svg>
